0
SECTION
2
HEADER
9
$INSUNITS
70
4
9
$ACADVER
1
AC1014
9
$HANDSEED
5
FFFF
0
ENDSEC
0
SECTION
2
TABLES
0
TABLE
2
VPORT
5
8
100
AcDbSymbolTable
0
ENDTAB
0
TABLE
2
LTYPE
5
5
100
AcDbSymbolTable
0
LTYPE
5
14
100
AcDbSymbolTableRecord
100
AcDbLinetypeTableRecord
2
BYBLOCK
70
0
0
LTYPE
5
15
100
AcDbSymbolTableRecord
100
AcDbLinetypeTableRecord
2
BYLAYER
70
0
0
LTYPE
5
16
100
AcDbSymbolTableRecord
100
AcDbLinetypeTableRecord
2
DASHED
70
0
3
Dashed __ __ __ __ __ __ __ __ __ __ __ __ __ _
72
65
73
2
40
0.75
49
0.5
74
0
49
-0.25
74
0
0
ENDTAB
0
TABLE
2
LAYER
5
2
100
AcDbSymbolTable
70
2
0
LAYER
5
50
100
AcDbSymbolTableRecord
100
AcDbLayerTableRecord
2
0
70
0
62
7
6
CONTINUOUS
0
ENDTAB
0
TABLE
2
STYLE
5
3
100
AcDbSymbolTable
70
1
0
STYLE
5
11
100
AcDbSymbolTableRecord
100
AcDbTextStyleTableRecord
2
STANDARD
70
0
0
ENDTAB
0
TABLE
2
VIEW
5
6
100
AcDbSymbolTable
70
0
0
ENDTAB
0
TABLE
2
UCS
5
7
100
AcDbSymbolTable
70
0
0
ENDTAB
0
TABLE
2
APPID
5
9
100
AcDbSymbolTable
70
2
0
APPID
5
12
100
AcDbSymbolTableRecord
100
AcDbRegAppTableRecord
2
ACAD
70
0
0
ENDTAB
0
TABLE
2
DIMSTYLE
5
A
100
AcDbSymbolTable
70
1
0
ENDTAB
0
TABLE
2
BLOCK_RECORD
5
1
100
AcDbSymbolTable
70
1
0
BLOCK_RECORD
5
1F
100
AcDbSymbolTableRecord
100
AcDbBlockTableRecord
2
*MODEL_SPACE
0
BLOCK_RECORD
5
1B
100
AcDbSymbolTableRecord
100
AcDbBlockTableRecord
2
*PAPER_SPACE
0
ENDTAB
0
ENDSEC
0
SECTION
2
BLOCKS
0
BLOCK
5
20
100
AcDbEntity
100
AcDbBlockBegin
2
*MODEL_SPACE
0
ENDBLK
5
21
100
AcDbEntity
100
AcDbBlockEnd
0
BLOCK
5
1C
100
AcDbEntity
100
AcDbBlockBegin
2
*PAPER_SPACE
0
ENDBLK
5
1D
100
AcDbEntity
100
AcDbBlockEnd
0
ENDSEC
0
SECTION
2
ENTITIES
0
LWPOLYLINE
5
100
100
AcDbEntity
8
0
100
AcDbPolyline
90
4
70
1
43
0.0
10
-72.500001076433037
20
-6.7061059829490963
10
-75.454037052663352
20
-6.7061059829490937
42
-0.99999999999999989
10
-75.454037052663352
20
-1.7061059829490932
10
-72.500001175485949
20
-1.7061059829490874
42
-1.0000000182501207
0
CIRCLE
5
101
100
AcDbEntity
8
0
100
AcDbCircle
10
-61.188381148404751
20
-29.122892366769698
30
0
40
2.5
210
0
220
-0
230
1
0
LWPOLYLINE
5
102
100
AcDbEntity
8
0
100
AcDbPolyline
90
26
70
1
43
0.0
10
-75.000000000000014
20
-30.7298514684
42
0.41421356237309542
10
-60.729851468400007
20
-45
10
20
20
-45
10
20
20
-33.429196897798896
10
-34.205289572869276
20
-33.429196897798896
42
-0.41421356237309509
10
-55.205289572869276
20
-12.429196897798889
10
-55.205289572869283
20
12.429196897798889
42
-0.4142135623730952
10
-34.205289572869269
20
33.429196897798903
10
19.999999999999982
20
33.429196897798896
10
19.999999999999982
20
45.000000000000007
10
-60.729851468400028
20
44.999999999999972
42
0.41421356237309515
10
-75
20
30.729851468399957
10
-75
20
30
10
-75.000000276890717
20
25.911999271062282
42
-0.41421354253469017
10
-87.412000276890694
20
13.500000111758713
10
-135.00000201165676
20
13.500000111758709
10
-135.00000201165676
20
7.500000111758709
10
-102.13058845081564
20
7.500000111758709
42
-0.41421356237309509
10
-95.735588450815641
20
1.1050001117587076
10
-95.735588450815627
20
0.39499991059303285
42
-0.41421356237309503
10
-102.13058845081562
20
-6.0000000894069672
10
-135.00000201165676
20
-6.0000000894069672
10
-135.00000201165676
20
-12.000000178813934
10
-87.41200034694873
20
-12.000000178813936
42
-0.41421354418789069
10
-75.000000346948767
20
-24.411999408175546
10
-75
20
-30
0
ENDSEC
0
SECTION
2
OBJECTS
0
DICTIONARY
5
C
100
AcDbDictionary
3
ACAD_GROUP
350
D
3
ACAD_MLINESTYLE
350
17
0
DICTIONARY
5
D
100
AcDbDictionary
0
DICTIONARY
5
1A
330
C
100
AcDbDictionary
0
DICTIONARY
5
17
100
AcDbDictionary
0
ENDSEC
0
EOF
